<svg width="16" height="16" viewBox="0 0 16 16" fill="none" xmlns="http://www.w3.org/2000/svg">
<g clip-path="url(#clip0_1_21)">
<path d="M8 0.5C12.1421 0.5 15.5 3.85786 15.5 8C15.5 12.1421 12.1421 15.5 8 15.5C3.85786 15.5 0.5 12.1421 0.5 8C0.5 3.85786 3.85786 0.5 8 0.5Z" fill="#E0F9FF" stroke="#149BDE"/>
<path d="M5.8163 10.1333V5.76969H7.02653V10.1333H5.8163ZM6.42425 5.20719C6.24433 5.20719 6.08997 5.14754 5.96118 5.02822C5.83429 4.90701 5.77084 4.76212 5.77084 4.59356C5.77084 4.42689 5.83429 4.2839 5.96118 4.16458C6.08997 4.04337 6.24433 3.98276 6.42425 3.98276C6.60418 3.98276 6.75759 4.04337 6.88448 4.16458C7.01327 4.2839 7.07766 4.42689 7.07766 4.59356C7.07766 4.76212 7.01327 4.90701 6.88448 5.02822C6.75759 5.14754 6.60418 5.20719 6.42425 5.20719ZM10.317 5.76969V6.67879H7.68917V5.76969H10.317ZM8.28576 4.72424H9.49599V8.79242C9.49599 8.90416 9.51303 8.99129 9.54712 9.05379C9.58121 9.11439 9.62856 9.15701 9.68917 9.18163C9.75167 9.20625 9.82364 9.21856 9.90508 9.21856C9.96189 9.21856 10.0187 9.21382 10.0755 9.20435C10.1323 9.19299 10.1759 9.18447 10.2062 9.17879L10.3966 10.0794C10.3359 10.0983 10.2507 10.1201 10.1409 10.1447C10.031 10.1712 9.8975 10.1873 9.7403 10.193C9.44864 10.2044 9.19296 10.1655 8.97326 10.0765C8.75546 9.9875 8.58595 9.84924 8.46474 9.66174C8.34352 9.47424 8.28386 9.2375 8.28576 8.95151V4.72424Z" fill="#4C93F0"/>
<circle cx="12.8" cy="12.8" r="2.13333" fill="#F08063"/>
</g>
<defs>
<clipPath id="clip0_1_21">
<rect width="16" height="16" fill="white"/>
</clipPath>
</defs>
</svg>
